<?xml version="1.0" standalone="no"?>
<!DOCTYPE svg PUBLIC "-//W3C//DTD SVG 20010904//EN"
 "http://www.w3.org/TR/2001/REC-SVG-20010904/DTD/svg10.dtd">
<svg version="1.0" xmlns="http://www.w3.org/2000/svg"
 width="596.000000pt" height="596.000000pt" viewBox="0 0 596.000000 596.000000"
 preserveAspectRatio="xMidYMid meet">

<g transform="translate(0.000000,596.000000) scale(0.100000,-0.100000)"
fill="currentColor" stroke="none">
<path d="M1795 5495 c-22 -8 -41 -15 -43 -15 -1 0 -7 -11 -12 -25 -16 -41 -1
-82 36 -105 25 -14 455 -103 1531 -315 823 -162 1509 -295 1523 -295 14 0 31
5 38 12 7 7 12 9 12 4 0 -10 25 15 38 39 15 29 -16 93 -54 110 -16 8 -344 75
-729 151 -385 75 -701 138 -703 139 -1 1 1 20 6 42 19 84 0 116 -76 134 -27 6
-35 4 -45 -12 -6 -10 -17 -19 -24 -19 -7 0 -14 -23 -18 -55 -4 -30 -12 -55
-17 -55 -8 0 -1279 250 -1403 275 -11 3 -38 -2 -60 -10z"/>
<path d="M1044 5444 c-12 -7 -24 -11 -26 -9 -2 2 -21 -1 -43 -6 -22 -5 -51
-12 -65 -15 -31 -6 -59 -41 -61 -74 -2 -32 -2 -28 6 -75 4 -22 8 -58 11 -80 2
-22 6 -59 9 -83 5 -38 3 -46 -24 -73 -42 -41 -71 -84 -71 -103 0 -9 -4 -16 -8
-16 -13 0 -30 -110 -26 -164 3 -27 15 -71 29 -97 13 -27 21 -49 17 -49 -4 -1
2 -8 13 -18 11 -9 28 -29 37 -44 17 -25 17 -33 3 -97 -14 -66 -13 -73 3 -103
17 -30 26 -35 95 -49 l76 -16 35 25 c20 14 38 33 41 43 4 11 11 19 16 19 5 0
9 5 9 11 0 7 8 19 19 28 10 9 21 26 25 39 4 12 11 20 15 18 14 -9 81 29 128
72 27 25 34 24 123 -15 30 -14 66 -30 80 -35 14 -6 33 -14 42 -19 10 -5 25 -9
33 -9 8 0 15 -4 15 -9 0 -5 11 -12 25 -15 14 -4 25 -11 25 -16 0 -6 11 -10 25
-10 14 0 25 -4 25 -10 0 -5 9 -10 21 -10 11 0 27 -6 34 -12 36 -32 46 -38 65
-38 11 0 20 -4 20 -8 0 -4 12 -13 28 -20 43 -20 111 -58 130 -74 9 -8 34 -23
55 -33 20 -11 37 -25 37 -32 0 -7 5 -13 11 -13 19 0 78 -66 83 -92 2 -12 14
-52 26 -88 12 -36 23 -69 24 -75 6 -32 49 -146 57 -151 5 -3 7 -9 4 -14 -3 -5
0 -20 7 -32 7 -13 12 -26 13 -30 0 -4 6 -13 13 -20 6 -6 12 -19 12 -28 0 -9
14 -37 30 -63 17 -26 30 -52 30 -58 0 -5 6 -12 14 -15 8 -3 17 -16 20 -29 3
-13 15 -27 26 -30 11 -3 20 -11 20 -17 0 -12 67 -78 80 -78 6 0 10 -4 10 -10
0 -5 11 -12 24 -16 14 -3 27 -12 30 -20 3 -8 12 -14 21 -14 8 0 23 -5 33 -10
9 -6 129 -33 265 -60 137 -26 250 -50 253 -52 2 -3 -4 -43 -14 -89 l-17 -85
-390 77 c-269 53 -395 74 -407 67 -10 -5 -18 -6 -18 -3 0 19 -28 -25 -33 -53
-9 -43 13 -86 50 -100 15 -6 406 -85 868 -176 628 -123 853 -163 890 -160 153
13 186 20 242 45 24 10 47 19 52 19 5 0 19 11 32 25 13 13 29 25 34 25 6 0 18
13 27 30 44 77 -58 167 -124 108 -29 -27 -92 -61 -116 -64 -143 -17 -169 -19
-222 -15 -49 3 -51 10 -33 101 l16 85 106 -1 c77 0 120 4 159 17 28 10 52 16
52 13 0 -2 12 3 27 13 14 9 32 18 40 19 33 5 136 97 147 132 4 12 11 20 16 17
4 -2 17 21 29 53 21 59 22 143 1 182 -5 10 -7 20 -4 22 5 5 -2 24 -33 96 -8
18 -15 42 -16 52 -1 11 -5 20 -9 20 -4 0 -18 21 -31 48 -13 26 -46 80 -73 121
-27 40 -55 84 -62 98 -8 13 -20 27 -28 30 -8 3 -14 11 -14 18 0 7 -11 20 -25
29 -14 9 -25 22 -25 30 0 7 -11 19 -25 26 -14 7 -25 17 -25 21 0 5 -16 23 -36
41 -20 18 -45 43 -57 56 -11 12 -26 22 -33 22 -7 0 -14 4 -16 9 -5 12 -109 93
-148 115 -19 11 -37 22 -40 26 -3 3 -36 22 -75 41 -38 19 -71 37 -73 42 -2 4
-15 7 -28 7 -13 0 -24 5 -24 10 0 6 -8 10 -18 10 -10 0 -47 11 -82 25 -35 14
-71 25 -80 25 -14 0 -24 28 -45 123 -2 9 -7 22 -10 28 -4 5 -8 20 -10 32 -7
42 -11 56 -18 63 -4 4 -7 18 -7 31 0 28 -15 61 -39 84 -9 8 -80 28 -166 45
-129 26 -155 28 -181 18 -17 -7 -36 -20 -43 -28 -8 -9 -19 -16 -25 -16 -7 0
-23 -11 -36 -25 -13 -14 -27 -25 -31 -25 -4 0 -51 -29 -103 -64 -52 -36 -108
-71 -123 -79 -26 -14 -74 -6 -651 108 -656 129 -654 129 -652 180 0 3 -11 16
-25 29 -14 13 -25 28 -25 35 0 6 -11 16 -24 22 -14 7 -26 23 -29 38 -3 14 -8
35 -11 46 -3 11 -10 38 -16 60 -6 22 -13 47 -15 55 -4 12 -24 88 -39 145 -9
36 -39 75 -59 77 -63 4 -82 3 -103 -8z m2556 -1174 c0 -5 9 -10 20 -10 26 0
245 -114 270 -140 3 -3 25 -19 50 -35 24 -17 90 -77 147 -135 125 -128 133
-138 133 -150 0 -5 11 -17 25 -26 14 -9 25 -25 25 -35 0 -11 4 -19 9 -19 6 0
16 -11 23 -24 7 -14 32 -57 56 -96 23 -40 42 -75 42 -79 0 -4 9 -25 19 -47 11
-21 16 -40 11 -42 -13 -5 -673 127 -700 140 -88 44 -132 128 -145 278 -3 30
-7 73 -9 94 -3 22 -8 78 -12 125 -3 47 -8 97 -10 111 -16 97 -16 100 16 100
17 0 30 -4 30 -10z m231 -1244 l36 -6 -17 -88 c-12 -64 -20 -86 -30 -85 -22 3
-387 73 -441 84 l-46 10 14 77 c7 42 15 82 18 88 2 8 70 -2 217 -31 117 -23
229 -45 249 -49z"/>
<path d="M1056 1873 c-53 -84 -486 -871 -486 -884 0 -8 5 -20 12 -27 9 -9 533
-12 2295 -12 l2283 0 23 37 c60 96 487 872 487 885 0 8 -5 19 -12 26 -9 9
-533 12 -2295 12 l-2283 0 -24 -37z m4467 -111 c-21 -38 -121 -218 -223 -400
l-185 -332 -2218 0 -2217 0 17 33 c10 19 110 199 223 400 l204 367 2218 0
2219 0 -38 -68z"/>
<path d="M1064 1445 c-3 -8 -3 -22 0 -30 5 -13 26 -15 128 -13 l123 3 0 25 0
25 -123 3 c-102 2 -123 0 -128 -13z"/>
<path d="M4924 1445 c-3 -8 -3 -22 0 -30 5 -13 26 -15 128 -13 l123 3 0 25 0
25 -123 3 c-102 2 -123 0 -128 -13z"/>
<path d="M1470 1430 c0 -19 7 -20 265 -20 258 0 265 1 265 20 0 19 -7 20 -265
20 -258 0 -265 -1 -265 -20z"/>
<path d="M2160 1430 c0 -20 7 -20 270 -20 263 0 270 0 270 20 0 20 -7 20 -270
20 -263 0 -270 0 -270 -20z"/>
<path d="M2850 1430 c0 -20 7 -20 270 -20 263 0 270 0 270 20 0 20 -7 20 -270
20 -263 0 -270 0 -270 -20z"/>
<path d="M3540 1430 c0 -20 7 -20 270 -20 263 0 270 0 270 20 0 20 -7 20 -270
20 -263 0 -270 0 -270 -20z"/>
<path d="M4230 1430 c0 -20 7 -20 270 -20 263 0 270 0 270 20 0 20 -7 20 -270
20 -263 0 -270 0 -270 -20z"/>
</g>
</svg>
