<?xml version="1.0" standalone="no"?>
<!DOCTYPE svg PUBLIC "-//W3C//DTD SVG 20010904//EN"
 "http://www.w3.org/TR/2001/REC-SVG-20010904/DTD/svg10.dtd">
<svg version="1.0" xmlns="http://www.w3.org/2000/svg"
 width="568.000000pt" height="426.000000pt" viewBox="0 0 568.000000 426.000000"
 preserveAspectRatio="xMidYMid meet">

<g transform="translate(0.000000,426.000000) scale(0.100000,-0.100000)"
fill="currentColor" stroke="none">
<path d="M3650 3819 c-377 -87 -694 -157 -705 -156 -14 1 -22 14 -30 44 -13
55 -44 86 -85 85 -69 -2 -98 -49 -78 -130 6 -23 9 -44 7 -46 -2 -2 -314 -74
-694 -161 -379 -87 -701 -162 -714 -167 -40 -15 -71 -51 -71 -83 0 -52 41 -85
105 -88 26 -1 3000 687 3003 694 2 5 10 9 18 9 16 0 44 50 44 78 0 24 -47 72
-71 72 -9 0 -23 2 -31 4 -7 2 -321 -67 -698 -155z"/>
<path d="M2875 3283 c-127 -30 -153 -39 -172 -62 -12 -14 -22 -30 -23 -34 0
-4 -18 -35 -40 -68 -22 -33 -40 -63 -40 -66 0 -4 -7 -15 -17 -25 -9 -10 -21
-27 -27 -37 -54 -96 -81 -137 -95 -146 -9 -5 -293 -73 -631 -151 -532 -123
-617 -140 -631 -128 -8 8 -21 14 -27 14 -7 0 -12 4 -12 9 0 9 -99 61 -117 61
-5 0 -20 15 -33 33 -13 17 -29 39 -37 47 -25 27 -58 66 -88 105 -84 106 -101
120 -147 119 -23 -1 -44 -7 -46 -13 -2 -6 -10 -11 -17 -11 -8 0 -19 -9 -25
-20 -6 -11 -15 -20 -21 -20 -5 0 -15 -5 -22 -10 -46 -39 -61 -50 -68 -50 -5 0
-15 -12 -22 -27 -12 -24 -12 -35 0 -75 7 -27 17 -48 21 -48 4 0 16 -17 27 -37
11 -21 22 -40 25 -43 10 -10 31 -45 36 -62 4 -10 10 -18 15 -18 11 0 12 -63 2
-74 -4 -3 -8 -12 -10 -19 -1 -7 -6 -28 -11 -48 -15 -59 -2 -149 31 -214 26
-52 109 -131 163 -156 43 -19 43 -20 60 -99 10 -47 22 -80 30 -80 6 0 14 -7
18 -15 3 -8 18 -15 33 -15 55 0 183 43 170 57 -3 2 2 21 10 41 8 20 16 46 18
57 9 69 21 101 51 134 19 19 34 40 34 47 0 6 7 17 15 24 8 7 15 20 15 30 0 10
9 19 22 22 55 10 541 -3 663 -18 28 -3 66 -7 85 -9 85 -7 230 -67 230 -95 0
-8 67 -83 163 -181 31 -33 57 -64 57 -69 0 -6 4 -10 8 -10 5 0 26 -16 48 -36
67 -61 111 -94 117 -88 3 3 11 -4 17 -16 7 -13 18 -19 26 -16 8 3 20 -3 26
-14 7 -11 23 -20 35 -20 13 0 23 -4 23 -10 0 -5 8 -10 18 -10 10 0 22 -3 26
-7 6 -7 13 -9 66 -19 14 -3 36 -7 50 -10 54 -11 121 -1 352 52 133 30 244 51
248 47 13 -14 41 -156 33 -163 -4 -4 -179 -46 -388 -94 -336 -77 -382 -89
-401 -111 -19 -22 -20 -30 -12 -65 10 -39 48 -70 85 -70 7 0 388 86 846 190
754 173 913 215 925 243 2 4 12 7 23 7 10 0 19 5 19 10 0 6 6 10 13 10 7 0 23
8 36 18 25 18 117 108 139 136 28 35 51 126 33 126 -6 0 -11 7 -11 15 0 23
-52 42 -100 36 -15 -2 -50 -43 -50 -60 0 -9 -9 -22 -20 -29 -11 -7 -20 -18
-20 -25 0 -6 -18 -23 -40 -37 -22 -13 -40 -28 -40 -32 0 -4 -9 -8 -20 -8 -11
0 -20 -4 -20 -10 0 -5 -9 -10 -20 -10 -11 0 -20 -3 -20 -8 0 -9 -45 -28 -87
-37 l-31 -6 -20 83 c-11 46 -17 86 -15 91 2 4 13 7 24 7 10 0 19 5 19 10 0 6
9 10 19 10 11 0 23 5 26 10 3 6 15 10 26 10 10 0 19 4 19 9 0 5 15 15 32 22
54 22 208 184 208 218 0 4 8 23 17 42 12 23 17 60 17 119 1 79 -2 88 -33 138
-18 28 -37 52 -42 52 -5 0 -9 7 -9 15 0 8 -9 19 -20 25 -11 6 -20 17 -20 25 0
8 -4 15 -9 15 -5 0 -25 15 -44 33 -81 76 -275 205 -357 237 -19 7 -41 18 -49
24 -13 10 -44 23 -131 52 -25 8 -54 19 -65 24 -11 5 -34 11 -52 14 -17 2 -38
8 -45 12 -7 5 -27 9 -44 10 -17 0 -37 4 -44 9 -7 4 -31 9 -54 11 -23 2 -72 6
-111 9 -111 10 -323 4 -346 -11 -9 -5 -79 57 -79 71 0 3 -13 19 -30 35 -16 16
-30 33 -30 37 0 4 -12 19 -25 32 -14 13 -33 36 -42 52 -14 23 -69 62 -85 58
-1 0 -70 -16 -153 -36z m809 -408 c43 -4 86 -8 95 -11 9 -2 46 -10 82 -18 36
-8 77 -19 90 -25 32 -13 63 -24 69 -25 3 -1 12 -6 20 -11 8 -5 24 -11 34 -12
11 -2 34 -12 51 -23 18 -11 35 -17 39 -13 4 4 11 1 16 -7 5 -8 13 -15 17 -16
21 -2 83 -35 83 -44 0 -6 9 -10 20 -10 10 0 24 -9 30 -20 6 -11 15 -18 20 -15
5 3 17 -3 27 -15 10 -11 21 -20 26 -20 11 0 80 -53 131 -102 38 -36 39 -37 15
-43 -617 -147 -726 -165 -770 -128 -8 6 -18 11 -23 11 -14 -1 -76 54 -76 68 0
6 -6 14 -13 17 -8 3 -26 31 -42 64 -16 32 -31 60 -35 63 -4 3 -20 30 -36 60
-16 30 -31 57 -34 60 -3 3 -18 32 -35 65 -16 33 -33 62 -36 65 -16 14 -42 70
-36 77 5 4 29 10 55 14 47 6 69 5 216 -6z m558 -1204 c-25 -15 -474 -113 -482
-105 -11 13 -41 156 -34 163 3 3 114 31 247 61 l242 55 19 -83 c15 -63 17 -85
8 -91z"/>
<path d="M230 538 c-70 -36 -103 -86 -108 -162 -6 -95 36 -165 120 -201 33
-13 309 -15 2600 -15 2470 0 2564 1 2603 19 153 71 153 291 0 362 -39 18 -133
19 -2605 19 l-2566 0 -44 -22z"/>
</g>
</svg>
