<?xml version="1.0" standalone="no"?>
<!DOCTYPE svg PUBLIC "-//W3C//DTD SVG 20010904//EN"
 "http://www.w3.org/TR/2001/REC-SVG-20010904/DTD/svg10.dtd">
<svg version="1.0" xmlns="http://www.w3.org/2000/svg"
 width="2367.000000pt" height="2367.000000pt" viewBox="0 0 2367.000000 2367.000000"
 preserveAspectRatio="xMidYMid meet">

<g transform="translate(0.000000,2367.000000) scale(0.100000,-0.100000)"
fill="currentColor" stroke="none">
<path d="M16005 22194 c-457 -95 -1276 -278 -2515 -564 -1967 -454 -3082 -700
-3171 -700 -64 0 -90 36 -134 190 -35 125 -76 200 -142 260 -71 65 -130 84
-238 78 -151 -10 -261 -83 -302 -201 -26 -75 -24 -234 6 -353 12 -50 23 -110
24 -134 l2 -44 -95 -23 c-184 -44 -2006 -465 -2977 -687 -2185 -502 -2779
-643 -2852 -681 -71 -36 -175 -136 -206 -199 -37 -77 -42 -139 -16 -224 37
-123 136 -207 287 -247 101 -26 152 -20 576 74 1441 320 6741 1541 10133 2335
1645 385 1922 453 1954 477 13 11 34 19 48 19 61 0 156 137 189 273 16 65 16
65 -10 122 -30 66 -139 181 -201 212 -32 16 -190 45 -231 42 -5 0 -63 -11
-129 -25z"/>
<path d="M10605 19480 c-16 -4 -214 -52 -440 -105 -566 -134 -708 -176 -796
-235 -56 -37 -120 -119 -173 -223 -23 -45 -95 -165 -161 -267 -65 -102 -136
-218 -157 -259 -21 -41 -55 -92 -76 -115 -54 -58 -86 -108 -197 -301 -110
-191 -210 -349 -262 -412 -30 -36 -47 -46 -105 -64 -160 -47 -1448 -353 -2863
-679 -1634 -377 -2127 -480 -2275 -480 -34 1 -54 8 -85 30 -21 17 -56 33 -77
37 -27 4 -45 14 -60 36 -11 16 -51 49 -87 72 -115 74 -350 185 -392 185 -30 0
-81 53 -194 198 -58 75 -144 180 -191 232 -47 52 -174 205 -282 340 -220 276
-370 434 -447 470 -112 52 -308 34 -371 -35 -18 -20 -41 -35 -54 -35 -36 0
-73 -28 -118 -91 -23 -33 -55 -64 -70 -70 -73 -29 -116 -56 -216 -139 -59 -49
-127 -99 -151 -110 -52 -25 -77 -51 -109 -115 -54 -110 -52 -168 15 -378 25
-78 39 -106 72 -140 46 -47 83 -103 150 -227 25 -47 67 -112 92 -145 25 -33
70 -111 101 -173 39 -80 62 -116 79 -122 24 -9 28 -21 40 -110 9 -70 -9 -170
-38 -214 -14 -20 -31 -63 -37 -94 -7 -31 -21 -93 -32 -137 -44 -178 -43 -368
3 -583 61 -279 159 -453 384 -677 139 -139 287 -251 423 -319 163 -82 170 -93
227 -348 41 -181 86 -331 110 -365 9 -12 30 -29 48 -38 18 -8 42 -31 55 -51
29 -45 75 -64 151 -64 158 0 533 106 664 187 34 21 37 27 37 68 0 26 15 85 36
142 60 164 74 214 90 323 33 217 92 361 193 472 94 103 140 167 151 209 6 22
30 61 53 87 43 49 55 72 77 150 10 38 17 47 58 65 47 22 53 22 602 21 939 -2
1768 -38 2375 -104 363 -40 534 -81 791 -190 200 -84 304 -152 330 -217 26
-61 221 -282 541 -615 254 -263 354 -379 381 -441 6 -15 23 -32 37 -37 37 -14
95 -60 258 -204 250 -220 367 -307 420 -309 27 -2 37 -11 69 -59 44 -66 68
-82 110 -74 39 8 75 -12 116 -63 41 -51 78 -71 156 -82 57 -8 66 -13 91 -54 7
-12 32 -21 75 -27 40 -5 78 -17 100 -32 43 -30 60 -34 325 -88 189 -38 224
-42 350 -42 211 1 430 39 1150 200 633 142 1046 224 1130 224 29 0 35 -5 49
-39 42 -107 116 -471 116 -575 0 -57 -2 -64 -22 -70 -163 -47 -802 -200 -1848
-441 -909 -210 -1212 -288 -1335 -346 -57 -27 -131 -108 -147 -161 -10 -34 -9
-55 4 -120 22 -106 51 -162 117 -229 62 -61 122 -94 195 -108 55 -10 104 0
1186 244 2511 565 4083 928 4950 1141 872 214 1195 314 1281 394 29 27 54 41
83 45 92 14 98 16 110 46 7 19 20 32 36 35 115 24 190 84 501 394 l257 255 51
105 c83 172 129 401 84 417 -33 11 -53 36 -53 63 0 39 -32 75 -93 104 -96 47
-276 71 -342 46 -64 -24 -195 -191 -195 -248 0 -38 -31 -80 -89 -124 -38 -29
-59 -54 -76 -92 -25 -58 -60 -89 -200 -183 -49 -33 -107 -79 -127 -102 -31
-35 -42 -41 -77 -41 -49 0 -89 -17 -96 -42 -8 -24 -30 -34 -90 -43 -57 -7 -65
-11 -81 -40 -24 -44 -210 -117 -391 -154 -84 -17 -93 -17 -97 -2 -3 9 -28 111
-56 226 -61 257 -98 471 -83 486 5 5 41 14 78 20 78 11 83 13 95 44 9 24 42
37 124 50 21 4 48 17 60 30 28 31 66 45 118 45 35 0 46 6 82 44 25 27 76 62
131 90 50 25 130 79 179 118 283 228 660 657 682 775 4 21 29 89 56 150 74
170 81 220 82 548 1 266 0 283 -22 346 -27 79 -90 192 -168 300 -51 70 -77 98
-141 150 -7 5 -13 22 -13 37 0 37 -21 65 -86 113 -53 39 -76 74 -88 131 -4 16
-15 29 -29 34 -35 11 -95 55 -187 139 -258 235 -738 577 -1130 804 -152 89
-247 137 -365 185 -49 21 -134 62 -188 93 -122 69 -182 94 -491 199 -136 47
-273 96 -302 109 -68 30 -178 61 -268 75 -64 10 -96 20 -214 64 -23 9 -92 20
-152 26 -71 6 -127 17 -156 30 -74 32 -180 48 -509 76 -611 50 -1399 40 -1604
-22 -46 -13 -46 -13 -100 22 -80 53 -227 199 -252 250 -11 24 -69 95 -127 157
-59 63 -118 134 -131 159 -13 26 -65 91 -116 146 -51 55 -116 134 -144 176
-61 90 -165 181 -265 231 -69 35 -104 40 -161 25z m2550 -1826 c397 -28 577
-50 800 -99 324 -71 437 -102 605 -164 85 -32 173 -64 194 -71 22 -7 77 -32
122 -56 45 -23 103 -46 129 -50 29 -4 106 -37 194 -81 130 -66 151 -74 187
-69 40 5 43 3 83 -44 27 -32 51 -51 73 -55 96 -21 301 -130 326 -176 19 -31
50 -49 88 -49 39 0 64 -17 130 -87 49 -52 66 -64 82 -59 29 10 68 -13 127 -74
30 -31 74 -63 110 -79 98 -46 309 -211 526 -414 111 -103 140 -140 123 -157
-21 -21 -1720 -412 -2211 -510 -427 -84 -566 -103 -758 -104 -187 -1 -208 3
-296 59 -29 20 -72 40 -94 46 -94 26 -304 215 -318 289 -4 16 -23 41 -47 60
-55 44 -89 95 -193 295 -48 93 -117 213 -151 265 -35 52 -105 170 -155 262
-50 92 -106 191 -124 220 -19 29 -80 142 -136 251 -112 218 -139 265 -184 316
-34 39 -114 200 -123 248 -5 27 -3 33 22 46 35 18 161 44 270 57 95 10 300 5
599 -16z m2507 -4566 c85 -374 92 -444 50 -467 -110 -59 -1809 -431 -1967
-431 l-42 0 -21 68 c-51 163 -101 404 -109 523 l-6 86 119 31 c161 43 517 129
814 196 135 31 430 99 655 150 226 52 419 95 430 95 18 1 26 -23 77 -251z"/>
<path d="M15116 11526 c-119 -44 -195 -176 -169 -291 5 -24 6 -46 1 -47 -9 -3
-3 -12 97 -146 103 -139 179 -243 204 -281 13 -20 33 -46 44 -59 11 -12 30
-37 41 -56 12 -19 39 -60 62 -93 54 -78 124 -183 219 -328 80 -123 90 -139
165 -260 24 -38 57 -92 75 -120 50 -78 73 -117 89 -152 8 -18 26 -48 40 -66
13 -17 29 -43 35 -57 6 -14 31 -59 56 -100 24 -41 52 -91 61 -110 9 -19 24
-46 34 -60 70 -101 440 -840 575 -1150 20 -47 45 -103 56 -125 10 -22 32 -74
49 -115 17 -41 40 -93 50 -116 11 -23 20 -45 20 -49 0 -5 9 -27 19 -49 27 -57
112 -271 171 -431 10 -27 31 -81 45 -120 14 -38 33 -88 40 -110 8 -22 28 -78
45 -125 17 -47 37 -105 45 -130 17 -56 43 -134 59 -180 7 -19 23 -69 36 -110
12 -41 28 -93 36 -115 8 -23 20 -63 28 -90 8 -28 24 -84 36 -125 41 -139 51
-175 64 -225 8 -27 24 -86 36 -130 31 -113 125 -488 140 -560 7 -33 18 -85 25
-115 14 -59 37 -164 53 -245 44 -214 43 -210 77 -400 27 -150 33 -164 88 -219
128 -127 332 -94 411 66 28 56 33 113 16 195 -13 67 -50 258 -60 318 -5 28
-23 115 -40 195 -18 80 -36 166 -40 191 -5 25 -13 64 -19 85 -5 21 -17 73 -27
114 -9 41 -23 95 -30 119 -8 25 -14 52 -14 62 0 9 -6 39 -14 65 -8 27 -24 87
-36 134 -46 175 -93 344 -141 505 -9 33 -23 78 -29 100 -6 22 -30 96 -52 165
-22 69 -48 152 -58 185 -43 143 -235 678 -310 865 -12 30 -33 82 -45 115 -13
33 -35 88 -49 123 -14 34 -37 88 -50 120 -13 31 -30 73 -39 92 -212 480 -250
562 -421 900 -158 314 -168 332 -295 565 -19 33 -46 83 -61 110 -29 54 -84
148 -136 235 -18 30 -47 80 -64 110 -17 30 -46 80 -65 110 -19 30 -54 86 -78
123 -70 114 -101 163 -121 193 -10 16 -33 52 -51 79 -18 28 -59 90 -91 138
-32 49 -70 106 -84 127 -14 22 -52 78 -84 125 -33 48 -67 101 -76 119 -16 32
-42 66 -122 162 -21 24 -54 72 -74 107 -62 107 -145 202 -198 229 -52 27 -148
33 -200 14z"/>
<path d="M1034 4063 c-160 -84 -244 -143 -322 -228 -226 -247 -253 -724 -58
-1018 72 -109 203 -218 331 -279 83 -38 159 -46 610 -58 662 -18 8102 -32
13690 -26 6175 8 7107 15 7339 57 123 22 281 127 384 255 282 351 226 891
-123 1171 -85 68 -184 118 -261 132 -260 47 -1015 51 -11649 57 l-9810 5 -131
-68z"/>
</g>
</svg>
