<?xml version="1.0" standalone="no"?>
<!DOCTYPE svg PUBLIC "-//W3C//DTD SVG 20010904//EN"
 "http://www.w3.org/TR/2001/REC-SVG-20010904/DTD/svg10.dtd">
<svg version="1.0" xmlns="http://www.w3.org/2000/svg"
 width="596.000000pt" height="596.000000pt" viewBox="0 0 596.000000 596.000000"
 preserveAspectRatio="xMidYMid meet">

<g transform="translate(0.000000,596.000000) scale(0.100000,-0.100000)"
fill="currentColor" stroke="none">
<path d="M2921 5441 c-15 -20 -21 -45 -21 -80 l0 -51 -728 0 c-690 0 -729 -1
-762 -19 -66 -35 -66 -111 0 -143 33 -17 129 -18 1573 -18 1378 0 1542 2 1572
16 60 28 67 92 15 139 -22 20 -38 20 -761 23 l-739 2 0 46 c0 50 -20 98 -45
108 -9 3 -32 6 -50 6 -26 0 -39 -7 -54 -29z"/>
<path d="M695 5101 c-22 -11 -68 -31 -103 -47 -98 -42 -101 -63 -42 -234 22
-63 40 -123 40 -132 0 -9 -13 -37 -29 -60 -39 -58 -55 -124 -49 -206 6 -86 40
-154 113 -225 l55 -54 0 -75 c0 -66 3 -78 25 -102 22 -24 31 -26 101 -26 71 0
78 2 103 29 14 15 41 61 60 102 25 55 43 80 70 97 20 13 50 41 66 63 35 46 31
46 215 5 187 -42 270 -64 425 -115 227 -75 301 -116 330 -181 8 -19 19 -42 25
-50 5 -8 33 -58 63 -110 76 -135 76 -136 135 -217 97 -133 196 -218 322 -273
53 -23 65 -24 338 -28 l282 -3 0 -90 0 -89 -396 0 c-455 0 -454 0 -454 -80 0
-40 5 -50 40 -73 22 -16 94 -17 895 -17 l870 0 85 24 c47 13 105 33 130 44
109 48 207 150 195 202 -10 40 -49 73 -86 72 -24 -1 -43 -12 -78 -48 -25 -25
-66 -56 -91 -66 -62 -28 -177 -58 -222 -58 l-38 0 0 89 0 89 53 7 c193 27 370
142 432 282 56 125 41 203 -75 388 -31 50 -30 49 -151 177 -259 274 -584 446
-939 495 l-118 16 -76 153 c-42 84 -86 160 -98 169 -18 12 -54 15 -182 15
l-159 0 -172 -170 -172 -170 -639 0 -639 0 -58 60 c-32 32 -66 61 -75 64 -10
4 -51 74 -97 167 -44 89 -90 172 -102 185 -27 30 -72 31 -128 5z m2835 -688
c155 -43 280 -98 390 -171 83 -54 101 -68 185 -135 63 -51 184 -177 232 -242
80 -107 116 -96 -304 -93 -326 3 -372 5 -399 20 -48 26 -94 77 -116 127 -20
47 -30 76 -91 286 -19 66 -42 142 -51 168 -9 26 -16 53 -16 59 0 13 92 3 170
-19z m390 -1243 l0 -90 -255 0 -255 0 0 90 0 90 255 0 255 0 0 -90z"/>
<path d="M286 2464 c-27 -26 -14 -72 23 -86 5 -1 78 -138 163 -303 l153 -300
5 -570 5 -570 2355 0 2355 0 5 570 5 570 153 300 c85 165 158 302 163 303 37
14 50 60 23 86 -14 14 -273 16 -2704 16 -2431 0 -2690 -2 -2704 -16z m634
-379 l0 -295 -123 0 -122 0 -148 288 c-81 159 -147 292 -147 295 0 4 122 7
270 7 l270 0 0 -295z m820 0 l0 -295 -385 0 -385 0 0 295 0 295 385 0 385 0 0
-295z m810 0 l0 -295 -380 0 -380 0 0 295 0 295 380 0 380 0 0 -295z m820 0
l0 -295 -380 0 -380 0 0 295 0 295 380 0 380 0 0 -295z m820 0 l0 -295 -380 0
-380 0 0 295 0 295 380 0 380 0 0 -295z m820 0 l0 -295 -385 0 -385 0 0 295 0
295 385 0 385 0 0 -295z m590 288 c0 -3 -66 -136 -147 -295 l-148 -288 -122 0
-123 0 0 295 0 295 270 0 c149 0 270 -3 270 -7z m-310 -1163 l0 -520 -2300 0
-2300 0 0 520 0 520 2300 0 2300 0 0 -520z"/>
</g>
</svg>
