<?xml version="1.0" standalone="no"?>
<!DOCTYPE svg PUBLIC "-//W3C//DTD SVG 20010904//EN"
 "http://www.w3.org/TR/2001/REC-SVG-20010904/DTD/svg10.dtd">
<svg version="1.0" xmlns="http://www.w3.org/2000/svg"
 width="2367.000000pt" height="2367.000000pt" viewBox="0 0 2367.000000 2367.000000"
 preserveAspectRatio="xMidYMid meet">

<g transform="translate(0.000000,2367.000000) scale(0.100000,-0.100000)"
fill="currentColor" stroke="none">
<path d="M10308 22504 c-229 -54 -337 -243 -258 -449 28 -73 137 -188 215
-227 71 -36 266 -86 2330 -593 143 -35 436 -107 650 -159 908 -221 1240 -302
1585 -386 201 -49 561 -136 800 -194 239 -58 611 -149 825 -201 215 -52 568
-138 785 -190 869 -209 1399 -337 1675 -404 941 -228 2371 -570 3269 -781 338
-80 570 -130 605 -130 31 -1 74 -2 96 -2 94 -2 274 147 291 241 11 55 -13 168
-51 246 -39 82 -50 95 -90 120 -16 11 -47 32 -67 47 -40 31 -136 61 -471 148
-458 118 -1386 348 -2257 559 -1208 293 -2556 628 -2949 734 -195 53 -211 64
-211 151 0 30 7 89 16 132 22 106 16 241 -15 309 -56 125 -210 210 -360 198
-151 -12 -274 -157 -321 -378 -21 -101 -52 -185 -66 -185 -22 0 -171 34 -504
115 -168 41 -444 108 -615 149 -297 72 -750 182 -1405 342 -498 122 -1041 254
-1615 393 -297 71 -603 146 -680 165 -77 19 -333 80 -570 136 -458 109 -531
120 -637 94z"/>
<path d="M7375 22450 c-6 -9 -26 -10 -76 -6 -63 7 -71 5 -131 -26 -57 -30 -71
-33 -148 -33 -59 0 -128 -10 -226 -32 -77 -18 -163 -32 -190 -30 -57 2 -110
-28 -185 -103 -49 -50 -64 -90 -94 -245 -19 -101 -19 -178 1 -234 9 -27 17
-97 20 -180 3 -75 12 -171 20 -215 8 -43 14 -137 14 -210 0 -105 3 -136 16
-155 15 -21 15 -27 -2 -84 -25 -84 -84 -170 -137 -204 -50 -31 -196 -201 -265
-307 -153 -235 -241 -629 -198 -886 43 -264 181 -602 312 -765 31 -38 63 -84
70 -102 23 -54 16 -130 -31 -323 -25 -102 -50 -226 -57 -277 -12 -91 -12 -92
14 -130 15 -21 29 -55 32 -76 8 -51 31 -83 80 -112 114 -66 381 -130 592 -142
124 -7 164 -1 164 24 0 9 62 80 138 157 77 78 172 186 212 241 137 186 224
256 413 332 113 45 159 72 190 110 10 12 46 32 80 45 46 16 75 36 112 74 62
64 87 70 167 43 110 -37 725 -347 1173 -591 779 -426 993 -549 1395 -807 257
-165 299 -198 480 -380 227 -229 353 -411 334 -486 -12 -49 48 -273 267 -990
54 -177 90 -334 82 -363 -2 -11 7 -36 22 -58 33 -48 58 -102 145 -321 114
-285 198 -443 235 -443 15 0 25 -31 25 -78 0 -57 25 -101 67 -118 47 -20 59
-37 73 -99 14 -67 51 -120 100 -145 43 -22 60 -45 60 -84 0 -19 14 -35 55 -66
30 -23 66 -58 79 -78 31 -49 51 -67 250 -221 178 -138 246 -181 364 -230 192
-79 378 -133 952 -277 670 -167 1133 -294 1201 -330 21 -11 29 -22 29 -42 0
-95 -108 -499 -161 -603 l-18 -37 -68 13 c-256 50 -671 148 -2118 501 -655
160 -955 220 -1064 212 -86 -6 -157 -43 -194 -100 -27 -42 -57 -152 -57 -212
0 -134 83 -287 183 -334 43 -21 1137 -296 3167 -795 904 -223 1201 -295 1463
-357 141 -33 337 -80 435 -105 446 -110 1207 -284 1592 -365 455 -95 668 -120
753 -89 29 10 43 10 74 0 94 -31 91 -30 119 -9 23 19 31 20 77 10 102 -22 234
7 612 133 281 93 314 106 397 162 88 59 235 213 273 285 28 53 28 58 13 75
-13 14 -17 35 -15 90 2 65 -1 74 -29 114 -66 92 -229 199 -304 199 -80 0 -199
-56 -266 -125 -35 -37 -63 -56 -92 -64 -23 -6 -59 -15 -81 -21 -21 -5 -55 -24
-76 -40 -48 -38 -107 -55 -263 -75 -68 -8 -138 -23 -154 -31 -32 -17 -62 -15
-135 7 -37 11 -44 11 -61 -4 -23 -21 -42 -21 -109 0 -46 14 -57 15 -76 4 -33
-21 -80 -24 -190 -11 -97 11 -290 53 -315 69 -10 6 1 66 43 242 67 286 119
455 143 468 12 6 35 4 72 -9 67 -24 97 -25 116 -5 19 19 45 19 91 0 40 -17 84
-19 129 -6 21 6 42 4 70 -6 65 -25 92 -27 119 -9 19 13 56 18 148 21 142 5
153 6 312 46 364 91 819 286 885 379 11 16 51 52 88 81 142 111 208 204 353
494 128 257 138 299 121 493 -15 161 -36 271 -62 319 -14 26 -16 41 -9 60 16
42 10 74 -27 150 -24 47 -34 81 -31 95 20 76 20 79 -1 101 -27 30 -60 98 -118
247 -63 161 -253 546 -384 775 -198 347 -357 585 -508 759 -33 37 -75 93 -93
123 -73 117 -117 167 -418 478 -91 94 -192 198 -225 233 -34 35 -95 89 -136
120 -41 31 -111 93 -155 137 -44 44 -109 97 -145 118 -36 21 -101 72 -145 115
-82 79 -111 99 -465 314 -270 164 -399 235 -703 383 -343 167 -629 285 -691
285 -29 0 -46 20 -85 98 -49 98 -91 235 -95 310 -3 42 -18 110 -41 181 -22 68
-40 148 -45 200 -5 47 -22 130 -39 185 -17 54 -36 128 -42 165 -5 36 -15 91
-20 121 -12 71 -96 243 -145 298 l-39 43 -185 45 c-307 75 -819 192 -915 210
-49 9 -128 17 -176 17 -79 0 -91 -3 -170 -40 -46 -22 -105 -58 -131 -79 -43
-36 -104 -74 -388 -243 -58 -34 -120 -75 -138 -91 -19 -16 -52 -37 -74 -47
-111 -49 -216 -107 -343 -192 -266 -178 -447 -281 -493 -281 -47 0 -1477 333
-2487 579 -181 45 -508 124 -725 177 -1257 306 -1847 462 -1963 521 -15 8 -41
35 -57 62 -16 26 -45 62 -65 79 -24 22 -35 41 -35 60 0 15 -16 55 -36 89 -54
91 -187 266 -248 328 -61 60 -71 86 -106 275 -12 63 -43 200 -70 305 -27 104
-76 318 -109 475 -92 429 -127 529 -220 612 -29 26 -78 57 -116 72 -78 31
-169 44 -180 26z m10162 -5391 c158 -45 256 -90 483 -222 475 -277 634 -380
842 -548 260 -211 336 -279 463 -415 66 -71 134 -142 151 -159 17 -16 49 -57
71 -90 22 -33 72 -88 111 -122 45 -40 94 -99 137 -163 69 -103 105 -140 135
-140 25 0 37 -18 45 -69 6 -37 20 -57 76 -117 72 -76 166 -211 174 -251 3 -12
7 -34 10 -48 3 -15 21 -35 45 -50 51 -32 68 -59 81 -131 14 -73 22 -90 51 -97
29 -8 50 -43 78 -129 12 -36 36 -81 55 -102 64 -72 208 -380 300 -640 53 -149
56 -176 21 -176 -49 0 -1428 332 -1976 476 -824 217 -1096 329 -1175 484 -13
26 -43 65 -65 86 -75 70 -162 290 -159 397 1 38 -4 68 -20 100 -24 50 -28 89
-35 397 -3 102 -10 208 -15 235 -13 61 -30 420 -41 845 -5 185 -13 329 -19
350 -19 59 -15 286 6 323 7 11 89 -1 170 -24z m-977 -4823 c232 -50 491 -112
1495 -357 266 -65 385 -96 390 -101 3 -3 -125 -517 -143 -573 -21 -65 -46
-106 -71 -112 -46 -11 -245 29 -721 147 -425 106 -514 128 -590 150 -36 10
-110 30 -165 45 -215 58 -449 127 -484 143 -34 17 -36 19 -33 62 7 94 86 408
139 553 30 79 21 77 183 43z"/>
<path d="M11690 14006 c-68 -19 -107 -42 -158 -94 -51 -51 -159 -196 -187
-251 -24 -47 -82 -129 -125 -176 -20 -22 -47 -56 -60 -75 -13 -19 -41 -55 -61
-80 -20 -25 -51 -72 -69 -105 -30 -58 -68 -117 -127 -199 -15 -21 -46 -66 -68
-101 -22 -34 -53 -77 -68 -95 -15 -18 -37 -51 -49 -74 -11 -22 -34 -58 -50
-79 -17 -20 -42 -59 -56 -85 -15 -26 -40 -65 -55 -87 -44 -63 -108 -162 -152
-234 -58 -97 -95 -155 -142 -226 -23 -35 -52 -83 -64 -107 -12 -24 -34 -59
-49 -78 -16 -20 -36 -54 -46 -75 -10 -22 -30 -58 -45 -80 -14 -22 -39 -65 -54
-95 -15 -30 -38 -68 -50 -85 -13 -16 -35 -55 -50 -85 -15 -30 -37 -66 -47 -80
-11 -14 -33 -52 -49 -85 -16 -33 -54 -103 -84 -155 -30 -52 -72 -129 -93 -170
-22 -41 -60 -113 -85 -160 -117 -220 -156 -295 -297 -580 -147 -296 -167 -337
-263 -540 -44 -93 -108 -235 -169 -375 -17 -38 -48 -107 -69 -152 -22 -45 -39
-85 -39 -89 0 -5 -16 -42 -34 -84 -38 -82 -75 -170 -112 -268 -13 -34 -33 -81
-45 -103 -11 -23 -31 -71 -44 -108 -43 -124 -84 -230 -103 -268 -11 -21 -23
-54 -27 -73 -4 -19 -17 -53 -28 -75 -11 -22 -32 -76 -47 -120 -47 -136 -96
-271 -104 -283 -4 -7 -16 -40 -26 -75 -10 -34 -37 -114 -60 -177 -22 -63 -47
-137 -55 -165 -8 -27 -25 -79 -39 -115 -13 -36 -38 -110 -55 -165 -17 -55 -45
-145 -62 -200 -17 -55 -38 -120 -46 -145 -16 -46 -49 -159 -84 -285 -11 -38
-28 -96 -39 -128 -11 -31 -20 -66 -20 -77 0 -10 -9 -43 -20 -72 -11 -29 -26
-82 -34 -118 -9 -36 -29 -114 -46 -175 -17 -60 -39 -144 -49 -185 -35 -141
-53 -215 -71 -285 -27 -101 -51 -203 -62 -260 -5 -27 -16 -75 -25 -104 -8 -30
-19 -78 -23 -105 -4 -28 -14 -80 -23 -116 -40 -165 -57 -247 -57 -268 0 -12
-9 -55 -20 -94 -11 -40 -20 -85 -20 -100 0 -16 -6 -54 -14 -86 -19 -73 -47
-220 -57 -297 -4 -33 -13 -78 -19 -100 -20 -65 -8 -190 23 -256 32 -67 118
-152 181 -180 151 -66 309 -37 427 81 60 59 95 133 105 219 3 25 11 75 19 111
7 36 23 121 35 190 12 69 28 148 36 176 8 28 14 61 14 74 0 13 9 64 21 114 11
50 29 134 41 186 11 52 28 131 38 175 10 44 28 125 40 180 12 55 30 134 41
175 23 93 47 191 60 250 6 25 19 77 30 115 29 107 49 183 68 265 10 41 26 97
35 123 9 26 16 54 16 63 0 8 11 49 25 92 13 42 38 127 55 187 17 61 42 144 56
185 13 41 24 83 24 93 0 10 7 32 16 48 8 17 24 63 34 102 19 71 44 148 82 257
11 30 25 78 33 105 7 28 20 68 30 90 9 22 25 67 35 100 23 76 57 173 86 250
12 33 25 71 29 85 4 14 19 57 35 95 16 39 36 93 45 120 34 100 72 201 93 248
12 27 22 54 22 60 0 7 13 40 30 75 16 34 36 84 44 110 8 26 36 97 61 157 26
61 60 142 75 180 83 207 88 219 184 431 25 55 46 104 46 109 0 4 16 42 36 84
20 42 49 103 64 136 16 33 49 105 75 160 26 55 62 132 80 170 43 91 250 510
275 555 10 19 28 53 38 75 11 22 41 81 68 130 26 50 66 126 89 170 24 44 65
121 93 170 28 50 66 120 85 157 19 37 44 80 55 95 11 15 31 51 44 78 24 49 53
99 116 200 17 28 45 77 63 110 17 33 41 74 54 90 12 17 32 49 44 73 12 24 42
73 67 108 24 36 44 71 44 77 0 7 13 28 29 48 16 19 40 55 52 80 13 24 39 69
59 99 96 144 117 176 147 227 18 30 46 71 62 92 15 20 38 54 50 76 21 38 70
112 147 220 52 73 122 176 142 209 9 15 31 46 47 68 44 60 126 170 160 218 17
23 45 60 63 83 17 23 45 62 61 87 17 25 48 70 71 100 50 67 93 125 143 193 21
28 33 53 27 57 -6 4 -6 27 2 68 31 165 -61 337 -220 409 -67 31 -181 40 -252
19z"/>
<path d="M1034 3213 c-160 -84 -244 -143 -322 -228 -226 -247 -253 -724 -58
-1018 72 -109 203 -218 331 -279 83 -38 159 -46 610 -58 662 -18 8102 -32
13690 -26 6175 8 7107 15 7339 57 123 22 281 127 384 255 282 351 226 891
-123 1171 -85 68 -184 118 -261 132 -260 47 -1015 51 -11649 57 l-9810 5 -131
-68z"/>
</g>
</svg>
