<?xml version="1.0" standalone="no"?>
<!DOCTYPE svg PUBLIC "-//W3C//DTD SVG 20010904//EN"
 "http://www.w3.org/TR/2001/REC-SVG-20010904/DTD/svg10.dtd">
<svg version="1.0" xmlns="http://www.w3.org/2000/svg"
 width="1024.000000pt" height="532.000000pt" viewBox="0 0 1024.000000 532.000000"
 preserveAspectRatio="xMidYMid meet">

<g transform="translate(0.000000,532.000000) scale(0.100000,-0.100000)"
fill="#000000" stroke="none">
<path d="M4001 4796 c-31 -17 -50 -53 -51 -94 0 -25 8 -42 33 -66 32 -32 52
-37 1907 -464 1032 -238 1888 -432 1903 -432 102 0 144 129 61 185 -21 15
-293 81 -909 224 -484 111 -882 204 -886 206 -3 3 0 33 8 69 14 59 13 67 -3
101 -20 43 -71 70 -114 60 -41 -9 -71 -47 -90 -117 -14 -52 -21 -62 -36 -60
-11 2 -408 93 -884 203 -476 109 -877 199 -890 199 -14 -1 -36 -7 -49 -14z"/>
<path d="M3080 4769 c-174 -36 -189 -41 -214 -66 -32 -31 -33 -72 -11 -273
l15 -134 -53 -56 c-99 -102 -132 -185 -125 -319 4 -98 39 -187 97 -254 l33
-37 -16 -70 c-29 -124 -22 -176 26 -201 35 -19 119 -39 163 -39 48 0 69 16
156 123 53 66 73 83 127 107 35 16 81 43 102 60 l38 30 169 -75 c339 -153 631
-322 781 -453 75 -65 84 -80 116 -208 62 -243 153 -486 232 -616 85 -140 200
-245 335 -307 40 -18 172 -54 348 -95 157 -37 286 -68 288 -70 2 -2 -7 -48
-20 -102 -20 -85 -26 -99 -43 -97 -10 1 -226 50 -478 108 -296 68 -469 104
-485 100 -91 -23 -107 -156 -23 -195 14 -6 494 -120 1067 -252 l1040 -240 120
1 c188 1 342 48 424 130 33 33 41 48 41 77 0 104 -97 145 -185 78 -62 -47
-130 -66 -255 -71 -122 -6 -200 7 -200 32 0 7 9 54 21 104 l21 90 126 -1 c286
-2 490 100 585 292 29 59 32 72 31 155 -4 256 -208 629 -509 930 -238 239
-493 399 -770 486 l-60 18 -52 213 c-46 187 -56 216 -80 238 -22 20 -64 34
-196 64 -105 24 -180 36 -201 33 -19 -3 -139 -70 -275 -155 -221 -137 -244
-149 -273 -143 -18 5 -371 86 -784 181 l-751 174 -31 60 c-16 34 -48 81 -70
106 -38 44 -42 55 -95 270 -51 206 -58 227 -86 252 -34 30 -74 35 -161 17z
m3250 -1611 c321 -148 659 -487 835 -838 55 -109 88 -200 72 -200 -31 0 -807
184 -844 200 -63 27 -127 92 -156 158 -24 53 -28 81 -46 342 -11 157 -23 313
-27 348 l-6 62 44 -16 c24 -9 81 -34 128 -56z m-105 -1463 c159 -37 292 -68
293 -70 4 -3 -38 -197 -43 -203 -2 -3 -546 120 -597 134 -22 6 -22 28 -4 103
8 31 17 69 20 84 5 20 11 27 24 23 9 -2 147 -35 307 -71z"/>
<path d="M245 430 c-44 -18 -70 -59 -70 -111 0 -42 5 -53 33 -81 l32 -33 4880
0 4880 0 32 33 c28 28 33 39 33 82 0 43 -5 54 -33 82 l-32 33 -4868 2 c-2677
1 -4876 -2 -4887 -7z"/>
</g>
</svg>
